<?xml version="1.0" encoding="iso-8859-1"?>
<!-- Generator: Adobe Illustrator 16.0.0, SVG Export Plug-In . SVG Version: 6.00 Build 0)  -->
<!DOCTYPE svg PUBLIC "-//W3C//DTD SVG 1.1//EN" "http://www.w3.org/Graphics/SVG/1.1/DTD/svg11.dtd">
<svg version="1.1" id="Capa_1" xmlns="http://www.w3.org/2000/svg" xmlns:xlink="http://www.w3.org/1999/xlink" x="0px" y="0px"
	 width="185.869px" height="185.868px" viewBox="0 0 185.869 185.868" style="enable-background:new 0 0 185.869 185.868;"
	 xml:space="preserve">
<g>
	<path d="M185.384,101.032l-9.568-59.359l-0.582-3.631l-3.567,0.915l-34.015,8.685c-2.834-0.039-15.255-7.454-21.932-11.437
		c-9.881-5.906-13.264-7.812-15.516-7.812c-2.67,0-10.83,3.838-17.748,8.331c-1.192-1.012-2.117-1.605-2.721-1.516
		c-7.179,1.152-28.438,18.332-32.691,17.275c-4.254-1.062-38.007-9.836-38.007-9.836L0,100.863c0,0,24.401,6.544,34.83,9.335
		l-3.093,4.542c-1.54,2.2-1.625,5.057-0.185,7.825c2.164,4.17,7.163,7.184,11.878,7.184c0.432,0,0.852-0.021,1.272-0.07
		c0.353,1.182,0.936,2.325,1.732,3.403c2.638,3.567,7.485,5.971,12.058,5.971c0.626,0,1.24-0.05,1.838-0.138
		c0.476,1.4,1.243,2.735,2.28,3.973c2.918,3.481,7.537,5.647,12.046,5.647c0.432,0,0.859-0.022,1.277-0.065
		c0.395,1.523,1.112,2.961,2.153,4.246c2.369,2.933,6.128,4.761,9.807,4.761c3.01,0,5.604-1.278,7.121-3.519
		c1.592-2.348,4.561-7.535,7.436-12.547c0.63-1.106,1.25-2.179,1.834-3.207c4.049,1.718,6.546,2.791,6.546,2.791
		c8.77,3.457,13.295-9.565,9.219-13.101l6.112,2.156c8.954,3.595,16.925-7.393,9.893-14.139c3.36,1.509,6.49,0.776,8.865-1.03
		l-0.021,0.022l7.835-1.609l30.241-8.48l2.895-0.821L185.384,101.032z M92.229,152.075c-0.952,1.406-2.565,2.041-4.335,2.041
		c-4.49,0-10.036-4.071-8.748-10.08c-1.368,0.789-2.913,1.139-4.489,1.139c-6,0-12.459-5.121-11.442-10.922
		c-1.35,0.996-3.002,1.444-4.723,1.444c-5.79,0-12.333-5.017-10.55-10.823c-1.401,1.067-2.956,1.521-4.513,1.521
		c-5.748,0-11.463-6.129-8.914-9.763l6.151-9.027c0.988-1.632,2.464-2.3,4.079-2.3c4.169,0,9.196,4.487,8.682,8.318
		c2.578-4.274,5.225-7.661,8.502-8.318c0.577-0.119,1.156-0.174,1.721-0.174c5.549,0,10.489,5.203,10.328,9.384
		c2.097-3.474,4.958-4.821,7.823-4.821c6.342,0,12.683,6.61,10.624,11.354c1.14-1.056,2.603-1.526,4.138-1.526
		c5.356,0,11.529,5.746,7.532,12.355C101.1,136.849,94.696,148.425,92.229,152.075z M151.822,110.057
		c0.518-1.839,0.64-3.661,0.342-5.368c4.444-0.761,8.384-4.077,9.981-8.586c1.644-4.629,0.361-9.357-3.324-12.332l-0.462-0.314
		c-0.252-0.134-25.471-14.121-49.413-28.857l-6.664,0.235c-1.68,0.783-6.266,3.098-6.865,5.272
		c-0.732,2.668-4.251,15.415-5.844,21.612c-0.417,1.642-2.105,2.325-4.335,2.325c-6.203,0-16.592-5.302-15.602-10.125
		c1.352-6.55,4.169-21.798,5.409-26.225c1.237-4.431,21.437-15.95,25.16-15.95c3.599,0,30.811,19.212,37.646,19.212
		c0.229,0,0.447-0.022,0.627-0.072c5.561-1.416,34.02-8.686,34.02-8.686l9.571,59.365L151.822,110.057z"/>
</g>
<g>
</g>
<g>
</g>
<g>
</g>
<g>
</g>
<g>
</g>
<g>
</g>
<g>
</g>
<g>
</g>
<g>
</g>
<g>
</g>
<g>
</g>
<g>
</g>
<g>
</g>
<g>
</g>
<g>
</g>
</svg>
